<svg width="16" height="16" viewBox="0 0 16 16" fill="none" xmlns="http://www.w3.org/2000/svg">
<path d="M12.1905 9.90476H3.04762L0 12.9524V0.761905C0 0.559835 0.0802718 0.366042 0.223157 0.223157C0.366042 0.0802718 0.559835 0 0.761905 0H12.1905C12.3925 0 12.5863 0.0802718 12.7292 0.223157C12.8721 0.366042 12.9524 0.559835 12.9524 0.761905V9.14286C12.9524 9.34493 12.8721 9.53872 12.7292 9.68161C12.5863 9.82449 12.3925 9.90476 12.1905 9.90476ZM16 5.33333V16L12.9524 12.9524H4.57143C4.36936 12.9524 4.17557 12.8721 4.03268 12.7292C3.8898 12.5863 3.80952 12.3925 3.80952 12.1905V11.4286H14.4762V4.57143H15.2381C15.4402 4.57143 15.634 4.6517 15.7768 4.79459C15.9197 4.93747 16 5.13126 16 5.33333ZM4.71619 1.52381C4.05333 1.52381 3.52 1.67619 3.10857 1.97333C2.71238 2.28571 2.51429 2.72 2.5219 3.3219L2.52952 3.34476H4C4.00762 3.11619 4.07619 2.94095 4.21333 2.81905C4.35442 2.70205 4.53295 2.63984 4.71619 2.64381C4.95238 2.64381 5.15048 2.72 5.28762 2.85714C5.42476 3.0019 5.48571 3.2 5.48571 3.42857C5.48571 3.67238 5.43238 3.8781 5.31048 4.05333C5.20381 4.22857 5.04381 4.38095 4.84571 4.50286C4.45714 4.7619 4.19048 4.99048 4.04571 5.19619C3.89333 5.39429 3.80952 5.71429 3.80952 6.09524H5.33333C5.33333 5.85905 5.36381 5.66857 5.43238 5.53143C5.50095 5.39429 5.63048 5.25714 5.82095 5.13524C6.16381 4.95238 6.44571 4.73143 6.66667 4.42667C6.88762 4.1219 7.0019 3.80952 7.0019 3.42857C7.0019 2.84952 6.79619 2.38476 6.38476 2.0419C5.98095 1.69905 5.42476 1.52381 4.71619 1.52381ZM3.80952 6.85714V8.38095H5.33333V6.85714H3.80952ZM8.38095 8.38095H9.90476V6.85714H8.38095V8.38095ZM8.38095 1.52381V6.09524H9.90476V1.52381H8.38095Z" fill="#BEBEBE"/>
</svg>
