<svg width="16" height="16" viewBox="0 0 16 16" fill="none" xmlns="http://www.w3.org/2000/svg">
<path fill-rule="evenodd" clip-rule="evenodd" d="M5 0H12L16 4V15H8.8L9.3 14.5L9 14H15V5H11V1H6V6.8L5.9 6.7L5.7 6H5V0ZM12 1V4H15L12 1ZM9 12L7.9 12.4C7.8 12.7 7.7 13 7.5 13.2L8 14.3L7.3 15L6.3 14.5C6 14.7 5.70001 14.8 5.40001 14.9L5.4 14.9L5 16H4L3.7 14.9L3.69999 14.9C3.39999 14.8 3.1 14.7 2.8 14.5L1.7 15L1 14.3L1.5 13.3C1.3 13 1.2 12.7 1.1 12.4L0 12V11L1.1 10.7C1.2 10.4 1.3 10.1 1.5 9.8L1 8.7L1.7 8L2.7 8.5C3 8.3 3.29999 8.2 3.59999 8.1L3.6 8.1L4 7H5L5.4 8.1L5.40001 8.1C5.70001 8.2 6 8.3 6.3 8.5L7.3 8L8 8.7L7.5 9.7C7.7 10 7.8 10.3 7.9 10.6L9 11V12ZM2.5 11.5C2.5 12.6 3.4 13.5 4.5 13.5C5.6 13.5 6.5 12.6 6.5 11.5C6.5 10.4 5.6 9.5 4.5 9.5C3.4 9.5 2.5 10.4 2.5 11.5Z" fill="#BEBEBE"/>
</svg>
