<svg width="32" height="32" viewBox="0 0 32 32" fill="none" xmlns="http://www.w3.org/2000/svg">
<path fill-rule="evenodd" clip-rule="evenodd" d="M16 32C24.8366 32 32 24.8366 32 16C32 7.16344 24.8366 0 16 0C7.16344 0 0 7.16344 0 16C0 24.8366 7.16344 32 16 32ZM24.2828 27.3134L27.6665 23.9568C28.1826 23.4256 28.1075 22.5524 27.3866 22.1005L22.4764 19.2017H22.451C21.9173 18.8919 21.1955 19.0771 20.6956 19.456L19.2454 20.9308C19.0875 21.0776 18.8173 21.0559 18.5966 20.9944C17.1114 20.6812 15.9099 19.5277 14.8113 18.4729C14.5895 18.26 14.372 18.0511 14.1571 17.854C12.8777 16.6802 11.4295 14.9747 10.9515 13.1243C10.9527 12.9937 11.0017 12.8737 11.0787 12.7682L12.3253 11.5222C12.7528 11.0853 12.9171 10.43 12.6306 9.81848L9.9084 4.65644C9.45876 3.96028 8.77926 3.75364 8.07662 4.3513L4.6929 7.73332C4.20188 8.18272 4.014 8.86698 4.00598 9.56418C3.91604 11.4176 4.8574 13.5362 5.65968 15.1966C7.75148 19.1564 11.0844 22.4331 14.7168 25.0757C16.9298 26.5139 19.625 27.9146 22.4765 28C23.1212 27.9992 23.7833 27.8257 24.2828 27.3134Z" fill="#EE6654"/>
</svg>
