<svg width="24" height="24" viewBox="0 0 24 24" fill="none" xmlns="http://www.w3.org/2000/svg">
<path fill-rule="evenodd" clip-rule="evenodd" d="M12 24C18.6274 24 24 18.6274 24 12C24 5.37258 18.6274 0 12 0C5.37258 0 0 5.37258 0 12C0 18.6274 5.37258 24 12 24ZM11.1865 9.49219C11.45 9.41835 11.724 9.37888 12 9.375C12.6106 9.37334 13.2062 9.54462 13.7026 9.86457C14.199 10.1845 14.571 10.6369 14.7658 11.1577C14.9606 11.6785 14.9685 12.2413 14.7882 12.7663C14.6079 13.2913 14.2487 13.7519 13.7613 14.083C13.274 14.414 12.6833 14.5987 12.0729 14.6108C11.4624 14.6229 10.8633 14.4618 10.3602 14.1504C9.85713 13.839 9.47569 13.393 9.26989 12.8757C9.06409 12.3583 9.04438 11.7958 9.21354 11.2678C9.42794 11.3775 9.67002 11.436 9.91666 11.4375C10.1082 11.4375 10.2978 11.4036 10.4747 11.3376C10.6517 11.2716 10.8124 11.175 10.9479 11.0531C11.0833 10.9312 11.1907 10.7865 11.264 10.6273C11.3373 10.468 11.375 10.2974 11.375 10.125C11.3733 9.90303 11.3084 9.68515 11.1865 9.49219ZM12 7.5C15.2013 7.5 17.9971 9.17789 19.4094 11.6578C19.469 11.7639 19.5 11.881 19.5 11.9999C19.5 12.1187 19.469 12.2359 19.4094 12.342C17.9979 14.8209 15.2013 16.5 12 16.5C8.79869 16.5 6.00285 14.8221 4.59061 12.3422C4.53104 12.2361 4.5 12.119 4.5 12.0001C4.5 11.8813 4.53104 11.7641 4.59061 11.658C6.00207 9.17906 8.79869 7.5 12 7.5ZM5.80389 12C7.07577 14.0859 9.43098 15.375 12 15.375C14.5693 15.375 16.9245 14.0859 18.1961 12C16.9242 9.91406 14.5693 8.625 12 8.625C9.43072 8.625 7.07577 9.91406 5.80389 12Z" fill="url(#paint0_linear)"/>
<defs>
<linearGradient id="paint0_linear" x1="9.24524e-08" y1="14.1" x2="24.9167" y2="12.2328" gradientUnits="userSpaceOnUse">
<stop stop-color="#912FA5"/>
<stop offset="1" stop-color="#FA6D4A"/>
</linearGradient>
</defs>
</svg>
